<svg width="167.593" height="83.782" xmlns="http://www.w3.org/2000/svg"><defs><clipPath clipPathUnits="userSpaceOnUse" id="a"><path d="M0 595.276h841.89V0H0Z" transform="translate(-301.214 -247.16)"/></clipPath><clipPath clipPathUnits="userSpaceOnUse" id="b"><path d="M0 595.276h841.89V0H0Z" transform="translate(-144.275 -307.255)"/></clipPath><clipPath clipPathUnits="userSpaceOnUse" id="c"><path d="M0 595.276h841.89V0H0Z" transform="translate(-296.968 -311.889)"/></clipPath></defs><path d="M0 0c5.45 6.075 10.027 12.688 13.665 19.71 10.996 2.701 20.569 6.896 28.039 12.174C33.315 16.202 18.182 4.382 0 0m-212.054 31.884c7.517-5.311 17.161-9.524 28.243-12.223 3.633-7.002 8.24-13.615 13.748-19.725-18.309 4.327-33.558 16.184-41.991 31.948m41.996 88.423c-5.504-6.109-10.102-12.723-13.736-19.722-11.089-2.699-20.74-6.914-28.26-12.227 8.434 15.765 23.685 27.623 41.996 31.949M41.704 88.358c-7.47 5.278-17.043 9.473-28.039 12.174-3.639 7.022-8.226 13.635-13.677 19.712 18.187-4.379 33.325-16.2 41.716-31.886M-80.175 65.121v18.514c10.98.425 21.687 2.239 31.233 5.319l-.004.012a93.445 93.445 0 0 0 6.561 1.85c3.08-7.884 4.953-16.594 5.457-25.695zm31.579-33.966-.108.034-.001-.002c-9.617 3.13-20.402 4.975-31.47 5.404v18.53h43.248c-.503-9.111-2.373-17.816-5.448-25.693a93.838 93.838 0 0 0-6.221 1.727m32.435 90.93c6.681-5.723 12.343-12.179 16.886-19.176a129.632 129.632 0 0 1-16.405 1.036c-7.11 0-14.144-.605-20.896-1.741-2.432 4.727-5.284 9.116-8.531 13.078 8.917 4.397 18.835 6.74 28.936 6.813zm-38.108-11.467c2.825-3.19 5.34-6.745 7.524-10.601a101.547 101.547 0 0 1-5.715-1.67l.003-.009c-8.468-2.683-17.951-4.281-27.718-4.69v10.657a76.697 76.697 0 0 1 25.906 6.313m-35.906-6.313V93.648c-9.778.409-19.275 2.01-27.751 4.698l.004.012c-1.778.584-3.61 1.108-5.463 1.603 2.184 3.879 4.681 7.442 7.451 10.592a76.693 76.693 0 0 1 25.759-6.248m-63.749 17.786c10.067-.111 19.945-2.475 28.823-6.881-3.225-3.944-6.068-8.312-8.494-13.037a126.278 126.278 0 0 1-21.075 1.772 129.84 129.84 0 0 1-16.168-1.004c4.525 6.95 10.188 13.392 16.914 19.15m-29.612-66.97h2.393a5 5 0 1 1 0 10h-2.392a77.249 77.249 0 0 0 6.602 26.658c6.976 1.395 14.484 2.166 22.263 2.166 5.76 0 11.458-.422 16.959-1.229a91.207 91.207 0 0 1-3.559-12.434 5 5 0 0 1 9.784-2.067 79.717 79.717 0 0 0 3.746 12.544 93.72 93.72 0 0 0 6.408-1.814l-.005-.015c9.528-3.065 20.211-4.871 31.162-5.295V65.121h-52.121a5 5 0 0 1 0-10h52.121V36.592c-11.085-.429-21.874-2.28-31.496-5.413v.001a93.315 93.315 0 0 0-6.073-1.695 79.55 79.55 0 0 0-3.729 12.483 5 5 0 1 1-9.783-2.075 89.875 89.875 0 0 1 3.574-12.369 117.35 117.35 0 0 0-16.988-1.227c-7.781 0-15.291.771-22.269 2.167a77.237 77.237 0 0 0-6.597 26.657m-10.024 0a87.036 87.036 0 0 1 4.606-23.462c-15.412 5.203-26.579 13.721-29.47 23.462zm-24.864 10c2.892 9.742 14.062 18.261 29.477 23.464a87.018 87.018 0 0 1-4.612-23.464zm64.508-66.971c-6.733 5.761-12.404 12.201-16.931 19.152a129.791 129.791 0 0 1 16.177-1.005c7.181 0 14.295.618 21.117 1.778 2.433-4.736 5.278-9.117 8.466-13.037-8.876-4.407-18.768-6.775-28.829-6.888m38.005 11.518c-2.778 3.154-5.284 6.718-7.472 10.604 1.526.407 3.031.841 4.505 1.309l.001-.002.242.074.015.004c8.656 2.824 18.395 4.501 28.445 4.921V15.91a76.64 76.64 0 0 1-25.736-6.242m35.736 6.241v10.668c10.047-.42 19.798-2.095 28.459-4.924l.101-.032v.001l.423-.136.004.01c1.456-.457 2.94-.882 4.446-1.281-2.188-3.86-4.708-7.422-7.542-10.617a76.622 76.622 0 0 1-25.891 6.311m63.987-17.763c-10.085.077-20.011 2.423-28.92 6.817 3.249 3.964 6.105 8.349 8.538 13.074a126.499 126.499 0 0 1 20.89-1.74c5.66 0 11.147.364 16.416 1.037C-3.812 10.328-9.495 3.875-16.188-1.854m33.464 46.439a4.997 4.997 0 0 1-6.088-3.596 78.638 78.638 0 0 0-4.369-12.477c-7.044-1.425-14.631-2.215-22.499-2.215-5.675 0-11.3.409-16.735 1.194 3.139 8.568 5.021 17.917 5.505 27.63h3.239a5 5 0 1 1 0 10h-3.24c-.485 9.698-2.365 19.052-5.505 27.624 5.432.786 11.053 1.2 16.736 1.2 7.866 0 15.451-.79 22.493-2.214a78.523 78.523 0 0 0 4.395-12.555 5.002 5.002 0 0 1 6.084-3.603 5 5 0 0 1 3.603 6.083 87.876 87.876 0 0 1-2.054 6.846c15.289-5.21 26.357-13.69 29.233-23.381H15.199a5 5 0 1 1 0-10h32.875C45.198 45.43 34.13 36.95 18.841 31.74a88.252 88.252 0 0 1 2.032 6.757 5 5 0 0 1-3.597 6.088m-32.956 87.518c-13.271 0-26.302-3.415-37.686-9.877l.012-.021c-9.655-5.273-20.644-8.064-31.821-8.064-11.189 0-22.193 2.796-31.854 8.082l.012.022c-11.375 6.449-24.395 9.858-37.653 9.858-41.076 0-74.495-32.291-74.495-71.982 0-39.692 33.419-71.983 74.495-71.983 12.971 0 25.746 3.272 36.943 9.461l-.002.005c9.835 5.538 21.085 8.468 32.554 8.468 11.467 0 22.732-2.934 32.577-8.485l-.001-.001.071-.038.426-.234.004.007c11.072-6.005 23.651-9.183 36.418-9.183 41.077 0 74.495 32.291 74.495 71.983 0 39.691-33.418 71.982-74.495 71.982" style="fill:#dab682;fill-opacity:1;fill-rule:nonzero;stroke:none" transform="matrix(.58196 0 0 -.58196 133.365 76.879)" clip-path="url(#a)"/><path d="M0 0c0 2.559-2.152 4.634-4.807 4.634-2.656 0-4.808-2.075-4.808-4.634s2.152-4.634 4.808-4.634C-2.152-4.634 0-2.559 0 0" style="fill:#dab682;fill-opacity:1;fill-rule:nonzero;stroke:none" transform="matrix(.58196 0 0 -.58196 42.033 41.905)" clip-path="url(#b)"/><path d="M0 0c-2.655 0-4.807-2.075-4.807-4.634S-2.655-9.267 0-9.267c2.655 0 4.807 2.074 4.807 4.633S2.655 0 0 0" style="fill:#dab682;fill-opacity:1;fill-rule:nonzero;stroke:none" transform="matrix(.58196 0 0 -.58196 130.894 39.209)" clip-path="url(#c)"/><path style="fill:#000;stroke-width:.158564" d="M38.098 83.402C19.351 81.03 4.43 67.562.878 49.81-.154 44.652-.125 38.769.959 33.536c1.693-8.171 6.36-16.288 12.598-21.908C20.423 5.44 28.167 1.825 37.5.448c2.884-.425 9.213-.385 12.21.078 5.731.885 9.398 2.146 16.094 5.531 3.434 1.736 5.515 2.541 8.483 3.283 7.897 1.972 16.329 1.435 23.777-1.516.876-.347 2.913-1.315 4.527-2.15 5.647-2.925 10.033-4.376 15.777-5.221C121.31.02 127.6.06 130.64.532c5.394.837 10.577 2.58 15 5.045 12.203 6.8 20.248 18.763 21.655 32.202.273 2.606.113 8.167-.305 10.592-.719 4.172-1.854 7.695-3.678 11.408-5.161 10.507-14.749 18.555-26.26 22.045-6.635 2.01-14.684 2.392-21.516 1.018-4.356-.875-7.462-2.013-12.954-4.745-7.14-3.551-11.913-4.761-18.781-4.761-6.839 0-12.892 1.543-18.945 4.83-4.85 2.633-9.508 4.205-15.067 5.084-2.329.369-9.27.459-11.69.152zm9.709-5.646c3.316-.343 7.172-1.333 10.435-2.678 2.357-.972 2.457-1.031 2.25-1.32l-1.382-1.92a50.027 50.027 0 0 1-2.289-3.55 151.89 151.89 0 0 0-1.108-1.91c-.024-.032-1.242.094-2.706.28-6.207.79-12.262.857-18.004.198-.589-.067-1.07-.065-1.07.006 0 .145 1.512 2.294 2.58 3.665 1.394 1.79 3.864 4.456 5.547 5.988l1.705 1.553 1.228-.074c.676-.04 1.942-.148 2.814-.238zm77.634-1.035c2.11-1.943 4.537-4.59 6.155-6.715 1.54-2.024 2.31-3.148 2.215-3.236-.034-.032-.954.04-2.045.16-3.086.337-9.038.453-12.13.235-2.373-.167-3.577-.296-6.82-.73l-.793-.107-.737 1.324c-.936 1.68-2.487 4.05-3.483 5.324-.425.543-.772 1.018-.772 1.055 0 .037.793.403 1.764.812 4.796 2.025 8.804 2.902 14.743 3.227.316.017.77-.304 1.903-1.349zm-91.033.123c0-.077-.114-.234-.253-.35-.527-.438-3.308-4.028-4.563-5.893a66.171 66.171 0 0 1-2.235-3.583c-.51-.902-1.005-1.663-1.1-1.69-.095-.029-1.1-.313-2.235-.632-4.36-1.226-8.787-3.141-12.265-5.304-.99-.616-1.835-1.12-1.878-1.12-.263 0 2.435 4.108 3.85 5.86 4.686 5.804 11.817 10.46 19.067 12.45 1.609.442 1.612.442 1.612.262zm100.9-.415c3.368-.97 7.162-2.743 10.165-4.749 3.774-2.52 6.68-5.25 9.294-8.73 1.205-1.605 2.89-4.31 2.815-4.52-.027-.077-.477.146-1 .494-1.682 1.119-4.039 2.383-6.25 3.352-2.208.97-6.518 2.464-8.134 2.82l-.905.2-.942 1.681c-1.673 2.984-3.559 5.698-5.92 8.519-.594.708-1.079 1.337-1.079 1.398 0 .06.125.071.278.024.152-.047.907-.267 1.678-.49zm-31.922-6.975c1.387-1.827 2.894-4.232 2.736-4.367-.191-.162-5.488-1.695-7.337-2.122-3.158-.73-6.63-1.264-9.355-1.437a51.082 51.082 0 0 1-2.18-.18l-.674-.083v3.178c0 3.658-.23 3.246 1.903 3.425 1.726.146 4.45.64 6.595 1.197 1.807.47 5.436 1.709 6.248 2.134.501.262.61.17 2.064-1.745zm-35.355 1.051c3.299-1.264 7.207-2.215 10.537-2.564.96-.1 1.905-.213 2.101-.25.356-.07.357-.078.357-3.248v-3.178l-.674.084c-.37.045-1.352.126-2.18.178-2.801.177-7.162.866-10.043 1.586-.934.234-6.472 1.845-6.578 1.915-.194.126 2.073 3.6 3.388 5.19.617.747.977 1.06 1.158 1.007a66.365 66.365 0 0 0 1.934-.72zM48.6 61.441c2.562-.212 4.677-.495 4.677-.625 0-.058-.218-.744-.484-1.523-.718-2.097-1.577-5.537-1.574-6.3.007-1.87 2.05-3.28 3.733-2.576.661.276 1.268.773 1.524 1.248.086.16.394 1.23.685 2.379.521 2.062 1.606 5.479 1.803 5.68.055.056 1.171-.213 2.48-.6 7.17-2.114 11.945-3.025 17.602-3.357l1.9-.111.043-5.427.041-5.427-15.58-.044c-17.17-.047-15.97.025-16.96-1.02-1.157-1.223-.956-3.053.453-4.128l.583-.445 15.75-.042 15.75-.042V28.174l-1.387-.1c-5.788-.413-10.721-1.227-14.938-2.465l-3.486-1.02c-1.086-.318-2.061-.543-2.169-.502-.234.09-1.475 3.85-1.968 5.96-.43 1.85-.877 2.668-1.706 3.134-1.825 1.026-4.157-.295-4.155-2.354 0-.816.681-3.606 1.487-6.089.31-.957.513-1.785.45-1.84-.163-.14-2.696-.421-5.743-.635-4.941-.346-11.864.093-16.67 1.058-.344.07-.505.29-.902 1.237-1.616 3.848-2.882 9.007-3.285 13.378l-.106 1.15h1.086c1.289 0 1.965.293 2.644 1.143 1.006 1.26.635 3.198-.768 4.02-.485.285-1.02.431-1.818.498l-1.132.095.102 1.046c.446 4.577 1.83 10.137 3.36 13.501l.473 1.038 1.65.266c1.8.29 5.307.717 6.565.8 1.908.125 8.252.092 9.99-.052zm83.96-.304c2.167-.29 3.39-.486 4.536-.728.392-.083 1.379-2.464 2.445-5.904.872-2.813 1.496-3.527 3.084-3.527 1.35 0 2.364.729 2.784 2.002.224.677.087 1.46-.67 3.84-.258.814-.43 1.52-.383 1.568.256.256 5.781-2.202 8.101-3.603 4.571-2.761 7.829-6.298 8.869-9.628l.11-.351-9.96-.046c-10.94-.05-10.366.002-11.335-1.022-1.14-1.204-.942-3.064.436-4.115l.6-.458 10.13-.043 10.13-.043-.1-.353c-.242-.847-1.36-2.97-2.035-3.86-2.021-2.673-5.557-5.367-9.653-7.357-2.124-1.032-5.193-2.276-5.314-2.154-.03.03.208.902.529 1.938.75 2.417.788 3.391.172 4.324-.779 1.177-2.222 1.579-3.534.983-.925-.42-1.274-1.013-1.985-3.369-.479-1.586-1.93-5.585-2.103-5.793-.014-.017-.905-.18-1.98-.363-6.128-1.046-12.818-1.202-19.326-.451-1.006.116-1.625.256-1.625.369 0 .1.175.682.389 1.294 1.322 3.784 2.211 8.288 2.708 13.714l.096 1.055 1.469.055c1.32.049 1.527.099 2.052.5 1.685 1.286 1.55 3.698-.265 4.718-.438.246-.987.367-1.933.426l-1.32.082-.087.732a67.037 67.037 0 0 0-.181 1.92c-.26 3.238-1.169 7.692-2.307 11.315-.353 1.12-.613 2.066-.579 2.1.057.057 3.325.446 5.032.6.392.035 2.926.04 5.63.012 3.85-.04 5.447-.122 7.372-.38zm-23.473-2.175c1.362-3.64 2.363-8.315 2.787-13.018l.104-1.15H86.572l.041 5.431.042 5.43 1.901.112c5.694.334 10.477 1.25 17.602 3.37 1.309.39 2.427.71 2.486.714.06.004.259-.396.443-.889zm-86.015-1.825c-1.026-3.239-1.781-7.113-2.229-11.431l-.094-.912H6.163l.103.357c.291 1.001 1.48 3.082 2.433 4.261 2.044 2.527 5.198 4.88 9.125 6.808 2.043 1.003 5.492 2.41 5.615 2.29.029-.027-.137-.645-.367-1.373zm-2.233-18.963c.414-4.175 1.098-7.82 2.078-11.058.29-.959.499-1.771.464-1.806-.131-.131-3.384 1.194-5.604 2.284-1.275.626-3.09 1.655-4.033 2.288-1.888 1.266-4.304 3.476-5.446 4.983-.685.904-2.114 3.636-2.114 4.041 0 .132 1.958.18 7.283.18h7.282zm91.033-.396c-.348-4.246-1.504-9.63-2.766-12.883-.289-.744-.34-.791-.835-.763-.29.017-1.841.428-3.447.912-5.695 1.718-10.416 2.567-16.86 3.03l-1.388.1v10.912h25.403ZM11.606 24.49c3.152-2.05 7.963-4.142 12.547-5.457l2.356-.675.721-1.33c1.46-2.691 4.082-6.452 6.288-9.02.487-.567.887-1.08.888-1.139.001-.06-.658.072-1.464.292-7.83 2.134-15.32 7.216-20.072 13.614-1.6 2.156-3.124 4.674-2.827 4.674.048 0 .751-.431 1.563-.959zm145.937.682c-.231-.625-1.674-2.87-2.863-4.455-3.956-5.272-9.57-9.567-15.86-12.133-1.939-.79-5.04-1.75-5.337-1.65-.115.038.064.343.45.766 1.881 2.059 4.786 6.178 6.456 9.154l.872 1.553 2.11.599c4.48 1.27 9.606 3.5 12.576 5.47 1.55 1.029 1.752 1.116 1.596.696zm-76.517-5.89v-3.156l-1.15-.106c-4.239-.39-9.345-1.627-12.864-3.115-.88-.372-1.137-.424-1.325-.268-.719.596-4.317 5.894-4.13 6.08.17.172 6.145 1.866 8.052 2.284 3.21.704 8.06 1.357 10.505 1.414l.912.022zm8.483 2.988c2.699-.23 5.992-.723 8.483-1.268 2.224-.486 8.246-2.223 8.246-2.378 0-.403-4.154-6.177-4.444-6.177-.061 0-.635.216-1.274.48-3.702 1.527-8.575 2.705-12.795 3.093l-1.15.106v6.311l.516-.002c.284 0 1.372-.075 2.418-.165zm-33.285-5.819c.98-1.76 2.11-3.52 3.261-5.074.598-.807 1.086-1.507 1.086-1.556 0-.048-.52-.325-1.157-.615-4.227-1.926-9.152-3.128-13.785-3.364l-2.02-.103-2.899 2.918c-2.67 2.688-4.375 4.696-6.147 7.236-.379.544-.649 1.029-.6 1.078.05.049.686.014 1.415-.077 2.922-.366 8.033-.515 11.384-.332 2.799.153 8.005.689 8.497.875.088.032.206.065.264.072.058.007.374-.47.701-1.058zm58.893.6c5.456-.688 12.308-.748 17.178-.15.77.094 1.437.135 1.483.089.045-.046-.28-.608-.723-1.249-1.652-2.388-3.638-4.717-6.244-7.32l-2.682-2.68-2.008.093c-4.718.22-9.696 1.424-13.953 3.376-1.059.485-1.143.558-.952.817l1.153 1.544c.982 1.312 3.323 5.082 3.498 5.633.072.23.197.295.447.237.19-.045 1.452-.22 2.803-.39z"/><path style="fill:#000;stroke-width:.158564" d="M129.654 44.21c-1.13-.557-1.757-2.111-1.297-3.22.268-.648 1.127-1.373 1.9-1.605.81-.242 1.687-.006 2.444.659.693.608.95 1.253.85 2.136-.201 1.781-2.243 2.845-3.897 2.03zM38.055 44.253c-.925-.41-1.506-1.341-1.506-2.41 0-1.581 1.808-2.915 3.332-2.458 1.854.556 2.627 2.603 1.527 4.045-.735.964-2.218 1.328-3.353.823z"/></svg>