<svg width="167.593" height="83.782" xmlns="http://www.w3.org/2000/svg"><defs><clipPath clipPathUnits="userSpaceOnUse" id="a"><path d="M0 595.276h841.89V0H0Z" transform="translate(-301.214 -247.16)"/></clipPath><clipPath clipPathUnits="userSpaceOnUse" id="b"><path d="M0 595.276h841.89V0H0Z" transform="translate(-144.275 -307.255)"/></clipPath><clipPath clipPathUnits="userSpaceOnUse" id="c"><path d="M0 595.276h841.89V0H0Z" transform="translate(-296.968 -311.889)"/></clipPath></defs><path d="M0 0c5.45 6.075 10.027 12.688 13.665 19.71 10.996 2.701 20.569 6.896 28.039 12.174C33.315 16.202 18.182 4.382 0 0m-212.054 31.884c7.517-5.311 17.161-9.524 28.243-12.223 3.633-7.002 8.24-13.615 13.748-19.725-18.309 4.327-33.558 16.184-41.991 31.948m41.996 88.423c-5.504-6.109-10.102-12.723-13.736-19.722-11.089-2.699-20.74-6.914-28.26-12.227 8.434 15.765 23.685 27.623 41.996 31.949M41.704 88.358c-7.47 5.278-17.043 9.473-28.039 12.174-3.639 7.022-8.226 13.635-13.677 19.712 18.187-4.379 33.325-16.2 41.716-31.886M-80.175 65.121v18.514c10.98.425 21.687 2.239 31.233 5.319l-.004.012a93.445 93.445 0 0 0 6.561 1.85c3.08-7.884 4.953-16.594 5.457-25.695zm31.579-33.966-.108.034-.001-.002c-9.617 3.13-20.402 4.975-31.47 5.404v18.53h43.248c-.503-9.111-2.373-17.816-5.448-25.693a93.838 93.838 0 0 0-6.221 1.727m32.435 90.93c6.681-5.723 12.343-12.179 16.886-19.176a129.632 129.632 0 0 1-16.405 1.036c-7.11 0-14.144-.605-20.896-1.741-2.432 4.727-5.284 9.116-8.531 13.078 8.917 4.397 18.835 6.74 28.936 6.813zm-38.108-11.467c2.825-3.19 5.34-6.745 7.524-10.601a101.547 101.547 0 0 1-5.715-1.67l.003-.009c-8.468-2.683-17.951-4.281-27.718-4.69v10.657a76.697 76.697 0 0 1 25.906 6.313m-35.906-6.313V93.648c-9.778.409-19.275 2.01-27.751 4.698l.004.012c-1.778.584-3.61 1.108-5.463 1.603 2.184 3.879 4.681 7.442 7.451 10.592a76.693 76.693 0 0 1 25.759-6.248m-63.749 17.786c10.067-.111 19.945-2.475 28.823-6.881-3.225-3.944-6.068-8.312-8.494-13.037a126.278 126.278 0 0 1-21.075 1.772 129.84 129.84 0 0 1-16.168-1.004c4.525 6.95 10.188 13.392 16.914 19.15m-29.612-66.97h2.393a5 5 0 1 1 0 10h-2.392a77.249 77.249 0 0 0 6.602 26.658c6.976 1.395 14.484 2.166 22.263 2.166 5.76 0 11.458-.422 16.959-1.229a91.207 91.207 0 0 1-3.559-12.434 5 5 0 0 1 9.784-2.067 79.717 79.717 0 0 0 3.746 12.544 93.72 93.72 0 0 0 6.408-1.814l-.005-.015c9.528-3.065 20.211-4.871 31.162-5.295V65.121h-52.121a5 5 0 0 1 0-10h52.121V36.592c-11.085-.429-21.874-2.28-31.496-5.413v.001a93.315 93.315 0 0 0-6.073-1.695 79.55 79.55 0 0 0-3.729 12.483 5 5 0 1 1-9.783-2.075 89.875 89.875 0 0 1 3.574-12.369 117.35 117.35 0 0 0-16.988-1.227c-7.781 0-15.291.771-22.269 2.167a77.237 77.237 0 0 0-6.597 26.657m-10.024 0a87.036 87.036 0 0 1 4.606-23.462c-15.412 5.203-26.579 13.721-29.47 23.462zm-24.864 10c2.892 9.742 14.062 18.261 29.477 23.464a87.018 87.018 0 0 1-4.612-23.464zm64.508-66.971c-6.733 5.761-12.404 12.201-16.931 19.152a129.791 129.791 0 0 1 16.177-1.005c7.181 0 14.295.618 21.117 1.778 2.433-4.736 5.278-9.117 8.466-13.037-8.876-4.407-18.768-6.775-28.829-6.888m38.005 11.518c-2.778 3.154-5.284 6.718-7.472 10.604 1.526.407 3.031.841 4.505 1.309l.001-.002.242.074.015.004c8.656 2.824 18.395 4.501 28.445 4.921V15.91a76.64 76.64 0 0 1-25.736-6.242m35.736 6.241v10.668c10.047-.42 19.798-2.095 28.459-4.924l.101-.032v.001l.423-.136.004.01c1.456-.457 2.94-.882 4.446-1.281-2.188-3.86-4.708-7.422-7.542-10.617a76.622 76.622 0 0 1-25.891 6.311m63.987-17.763c-10.085.077-20.011 2.423-28.92 6.817 3.249 3.964 6.105 8.349 8.538 13.074a126.499 126.499 0 0 1 20.89-1.74c5.66 0 11.147.364 16.416 1.037C-3.812 10.328-9.495 3.875-16.188-1.854m33.464 46.439a4.997 4.997 0 0 1-6.088-3.596 78.638 78.638 0 0 0-4.369-12.477c-7.044-1.425-14.631-2.215-22.499-2.215-5.675 0-11.3.409-16.735 1.194 3.139 8.568 5.021 17.917 5.505 27.63h3.239a5 5 0 1 1 0 10h-3.24c-.485 9.698-2.365 19.052-5.505 27.624 5.432.786 11.053 1.2 16.736 1.2 7.866 0 15.451-.79 22.493-2.214a78.523 78.523 0 0 0 4.395-12.555 5.002 5.002 0 0 1 6.084-3.603 5 5 0 0 1 3.603 6.083 87.876 87.876 0 0 1-2.054 6.846c15.289-5.21 26.357-13.69 29.233-23.381H15.199a5 5 0 1 1 0-10h32.875C45.198 45.43 34.13 36.95 18.841 31.74a88.252 88.252 0 0 1 2.032 6.757 5 5 0 0 1-3.597 6.088m-32.956 87.518c-13.271 0-26.302-3.415-37.686-9.877l.012-.021c-9.655-5.273-20.644-8.064-31.821-8.064-11.189 0-22.193 2.796-31.854 8.082l.012.022c-11.375 6.449-24.395 9.858-37.653 9.858-41.076 0-74.495-32.291-74.495-71.982 0-39.692 33.419-71.983 74.495-71.983 12.971 0 25.746 3.272 36.943 9.461l-.002.005c9.835 5.538 21.085 8.468 32.554 8.468 11.467 0 22.732-2.934 32.577-8.485l-.001-.001.071-.038.426-.234.004.007c11.072-6.005 23.651-9.183 36.418-9.183 41.077 0 74.495 32.291 74.495 71.983 0 39.691-33.418 71.982-74.495 71.982" style="fill:#dab682;fill-opacity:1;fill-rule:nonzero;stroke:none" transform="matrix(.58196 0 0 -.58196 133.365 76.879)" clip-path="url(#a)"/><path d="M0 0c0 2.559-2.152 4.634-4.807 4.634-2.656 0-4.808-2.075-4.808-4.634s2.152-4.634 4.808-4.634C-2.152-4.634 0-2.559 0 0" style="fill:#dab682;fill-opacity:1;fill-rule:nonzero;stroke:none" transform="matrix(.58196 0 0 -.58196 42.033 41.905)" clip-path="url(#b)"/><path d="M0 0c-2.655 0-4.807-2.075-4.807-4.634S-2.655-9.267 0-9.267c2.655 0 4.807 2.074 4.807 4.633S2.655 0 0 0" style="fill:#dab682;fill-opacity:1;fill-rule:nonzero;stroke:none" transform="matrix(.58196 0 0 -.58196 130.894 39.209)" clip-path="url(#c)"/></svg>